<svg xmlns="http://www.w3.org/2000/svg" viewBox="0 9.470000267028809 142.6300048828125 35.78999710083008" data-asc="0.9052734375" width="142.6300048828125" height="35.78999710083008"><defs/><g fill="#0011ff"><g transform="translate(0, 0)"><path d="M0 45.26L0 9.47L25.88 9.47L25.88 13.70L4.74 13.70L4.74 24.66L24.54 24.66L24.54 28.86L4.74 28.86L4.74 41.04L26.71 41.04L26.71 45.26L0 45.26ZM33.11 45.26L33.11 9.47L40.23 9.47L48.71 34.81Q49.88 38.35 50.42 40.11Q51.03 38.16 52.32 34.38L60.89 9.47L67.26 9.47L67.26 45.26L62.70 45.26L62.70 15.31L52.29 45.26L48.02 45.26L37.67 14.79L37.67 45.26L33.11 45.26ZM74.90 45.26L74.90 9.47L87.23 9.47Q91.41 9.47 93.60 9.99Q96.68 10.69 98.85 12.55Q101.68 14.94 103.09 18.66Q104.49 22.39 104.49 27.17Q104.49 31.25 103.54 34.40Q102.59 37.55 101.10 39.61Q99.61 41.67 97.84 42.86Q96.07 44.04 93.57 44.65Q91.06 45.26 87.82 45.26L74.90 45.26M79.64 41.04L87.28 41.04Q90.82 41.04 92.83 40.38Q94.85 39.72 96.04 38.53Q97.73 36.84 98.67 34.00Q99.61 31.15 99.61 27.10Q99.61 21.48 97.77 18.47Q95.92 15.45 93.29 14.43Q91.38 13.70 87.16 13.70L79.64 13.70L79.64 41.04ZM111.08 45.26L111.08 9.47L126.95 9.47Q131.74 9.47 134.23 10.44Q136.72 11.40 138.21 13.84Q139.70 16.28 139.70 19.24Q139.70 23.05 137.23 25.66Q134.77 28.27 129.61 28.98Q131.49 29.88 132.47 30.76Q134.55 32.67 136.40 35.52L142.63 45.26L136.67 45.26L131.93 37.82Q129.86 34.59 128.52 32.89Q127.17 31.18 126.11 30.49Q125.05 29.81 123.95 29.54Q123.14 29.37 121.31 29.37L115.82 29.37L115.82 45.26L111.08 45.26M115.82 25.27L126.00 25.27Q129.25 25.27 131.08 24.60Q132.91 23.93 133.86 22.45Q134.81 20.97 134.81 19.24Q134.81 16.70 132.97 15.06Q131.13 13.43 127.15 13.43L115.82 13.43L115.82 25.27Z"/></g></g></svg>
